# xmcd
#
# Track frame offsets: 
#        150
#        21874
#        58024
#        83259
#        110549
#        119511
#        136585
#        159803
#        186037
#
# Disc length: 2678 seconds
#
# Revision: 4
# Processed by: cddbd v1.5.2PL0 Copyright (c) Steve Scherf et al.
# Submitted via: ExactAudioCopy v1.0b6
#
DISCID=630a7409
DTITLE=Albert Collins - Live at the Filmore West, San Francisco 1969
DYEAR=1969
DGENRE=Blues
TTITLE0=Introduction Instrumental
TTITLE1=How Blue Can You Get
TTITLE2=Thaw Out
TTITLE3=So Tired
TTITLE4=Funky
TTITLE5=Deep Freeze
TTITLE6=Baby What Do You Want Me To Do?
TTITLE7=Mustang Sally
TTITLE8=Backstroke
EXTD=YEAR: 2005
EXTT0=
EXTT1=
EXTT2=
EXTT3=
EXTT4=
EXTT5=
EXTT6=
EXTT7=
EXTT8=
PLAYORDER=
